<?xml version="1.0" encoding="utf-8"?>
<!-- Generator: Adobe Illustrator 27.0.0, SVG Export Plug-In . SVG Version: 6.00 Build 0)  -->
<svg version="1.1" id="Слой_1" xmlns="http://www.w3.org/2000/svg" xmlns:xlink="http://www.w3.org/1999/xlink" x="0px" y="0px"
	 viewBox="0 0 700 700" style="enable-background:new 0 0 700 700;" xml:space="preserve">
<style type="text/css">
	.st0{fill-rule:evenodd;clip-rule:evenodd;}
</style>
<g>
	<path fill="#663399" class="st0" d="M463.3,52.3l-2.9,138.4c0,9.1,7.4,16.5,16.5,16.5s16.5-7.4,16.5-16.5l-2.9-138.4c0-7.5-6.1-13.5-13.6-13.5
		S463.3,44.8,463.3,52.3L463.3,52.3L463.3,52.3z"/>
	<path fill="#663399" class="st0" d="M463.8,383.3c47.2,10.1,82.9,28.7,77.6,73.9c-1.2,10.6-4.8,18.4-10.6,23.9c-5.8,5.6-13.7,8.8-23.1,10.3
		c-20.4,3.3-47.8-1-78.5-8.3c-2.3-0.6-4.7,0.9-5.3,3.2c-0.6,2.3,0.9,4.7,3.2,5.3c32,7.6,60.6,11.9,81.9,8.4
		c11.4-1.9,20.8-5.9,27.8-12.7c7-6.8,11.7-16.2,13.2-29.2c5.9-50.2-32.1-72.3-84.5-83.5c-2.4-0.5-4.7,1-5.2,3.4
		C459.9,380.5,461.4,382.8,463.8,383.3L463.8,383.3z M339.7,458.9c-47.5-12.9-98.6-25.6-138.8-20.4c-28,3.6-50.8,15.7-64.2,41.6
		c-1.1,2.1-0.3,4.8,1.9,5.9s4.8,0.3,5.9-1.9c15.1-29.1,43.7-38.3,77.7-38c35.4,0.3,76.6,10.8,115.3,21.3c2.3,0.6,4.7-0.7,5.4-3.1
		C343.4,462,342,459.6,339.7,458.9L339.7,458.9z M260,348.5c25.3,15,71.7,19.2,120.1,23.8c2.4,0.2,4.5-1.5,4.8-3.9
		c0.2-2.4-1.5-4.5-3.9-4.8c-46.9-4.4-91.9-8.1-116.5-22.6c-2.1-1.2-4.8-0.5-6,1.5C257.3,344.6,257.9,347.3,260,348.5L260,348.5z
		 M344,250.7c-31.1,5.1-56,12.4-73.7,21.5c-12.4,6.4-21.3,13.7-26.6,21.7c-1.3,2-0.8,4.7,1.2,6.1c2,1.3,4.7,0.8,6.1-1.2
		c4.6-7,12.5-13.2,23.3-18.8c17.1-8.8,41.1-15.7,71.1-20.7c2.4-0.4,4-2.6,3.6-5C348.7,252,346.4,250.3,344,250.7L344,250.7z
		 M475.3,217.4c0,0,8.8,3.4,14.5,8c1.3,1,2.4,2.1,3.1,3.2c0.4,0.7,0.7,1.3,0.3,2c-1.4,2-4.8,3.7-10.8,5.4c-11,3.2-29.7,5.8-59.6,7.1
		c-2.4,0.1-4.3,2.1-4.2,4.6c0.1,2.4,2.1,4.3,4.6,4.2c31-1.3,50.3-4.1,61.7-7.4c8.9-2.6,13.6-5.9,15.6-8.9c3.1-4.6,2-9.4-1.8-13.8
		c-6.1-6.9-20.1-12.5-20.1-12.5c-2.2-0.9-4.8,0.2-5.7,2.5C471.9,214,473.1,216.5,475.3,217.4L475.3,217.4z"/>
	<path fill="#663399" class="st0" d="M484.6,187.9c0,0,7.4-3.9,5.5-4.4c5.9,1.6,10.7,4.3,13.6,7.4c2.4,2.6,3.7,5.7,3.7,8.8c0,4.3-2.4,8.4-6.9,11.6
		c-5.3,3.8-13.9,6.3-23.6,6.3c-9.7,0-18.3-2.6-23.6-6.3c-4.5-3.2-6.9-7.3-6.9-11.6c0-3.1,1.3-6.1,3.7-8.8c2.9-3.1,7.7-5.8,13.6-7.4
		c-1.9,0.5,5.5,4.4,5.5,4.4l-0.1,2.7c0,4.3,3.5,7.8,7.8,7.8c4.3,0,7.8-3.5,7.8-7.8L484.6,187.9L484.6,187.9z M493.1,193.9
		c1.2,0.6,2.3,1.3,3.3,2.1c1.3,1.1,2.3,2.3,2.3,3.8c0,1.7-1.4,3.1-3.2,4.4c-4.2,3-11,4.7-18.6,4.7s-14.4-1.8-18.6-4.7
		c-1.8-1.3-3.2-2.7-3.2-4.4c0-1.4,1-2.6,2.3-3.8c0.9-0.8,2-1.5,3.3-2.1c1.5,7.6,8.2,13.2,16.2,13.2S491.6,201.5,493.1,193.9
		L493.1,193.9z"/>
	<path fill="#663399" class="st0" d="M140.5,477.7c-12.8,0-24.1,3.1-31.1,7.7c-5.8,3.8-8.8,8.7-8.8,13.7c0,5,3.1,9.9,8.8,13.7
		c7,4.6,18.3,7.7,31.1,7.7c12.8,0,24.1-3.1,31.1-7.7c5.8-3.8,8.8-8.7,8.8-13.7c0-5-3.1-9.9-8.8-13.7
		C164.6,480.8,153.3,477.7,140.5,477.7L140.5,477.7z"/>
	<path fill="#663399" class="st0" d="M384.5,452c-12.8,0-24.1,3.1-31.1,7.7c-5.8,3.8-8.8,8.7-8.8,13.7s3.1,9.9,8.8,13.7c7,4.6,18.3,7.7,31.1,7.7
		c12.8,0,24.1-3.1,31.1-7.7c5.8-3.8,8.8-8.7,8.8-13.7s-3.1-9.9-8.8-13.7C408.6,455.2,397.3,452,384.5,452z"/>
	<path fill="#663399" class="st0" d="M423.6,351.9c-10.6,0-19.9,2.6-25.8,6.4c-5,3.3-7.6,7.5-7.6,11.9c0,4.3,2.6,8.6,7.6,11.9
		c5.8,3.8,15.2,6.4,25.8,6.4c10.6,0,19.9-2.6,25.8-6.4c5-3.3,7.6-7.5,7.6-11.9s-2.6-8.6-7.6-11.9
		C443.5,354.5,434.2,351.9,423.6,351.9z"/>
	<path fill="#663399" class="st0" d="M243.9,303.6c-9.9,0-18.6,2.4-24,6c-4.7,3.1-7.1,7.1-7.1,11.2c0,4.1,2.4,8.1,7.1,11.2c5.4,3.5,14.1,6,24,6
		c9.9,0,18.6-2.4,24-6c4.7-3.1,7.1-7.1,7.1-11.2c0-4.1-2.4-8.1-7.1-11.2C262.5,306,253.7,303.6,243.9,303.6z"/>
	<path fill="#663399" class="st0" d="M380.5,235.8c-8.9,0-16.7,2.2-21.6,5.4c-4.4,2.8-6.6,6.6-6.6,10.4s2.2,7.5,6.6,10.4c4.9,3.2,12.7,5.4,21.6,5.4
		c8.9,0,16.7-2.2,21.6-5.4c4.4-2.8,6.6-6.6,6.6-10.4s-2.2-7.5-6.6-10.4C397.2,238,389.4,235.8,380.5,235.8z"/>
	<path fill="#663399" class="st0" d="M498.9,48.5c0.2,1.2,0.3,2.4,0.3,3.6l1.8,84.7l28.7-4.2c13.1-1.9,26.5-1.4,39.4,1.6l0,0
		c7.2,1.7,14.7,0,20.5-4.6c5.8-4.6,9.1-11.5,9.1-18.9V70.6c0-7.3-3.2-14.2-8.7-18.9c-5.5-4.7-12.9-6.7-20-5.6
		c-8.2,1.4-17.5,2.9-26.1,4.3C528.8,53,513.5,52.3,498.9,48.5L498.9,48.5z"/>
</g>
</svg>
